<?xml version="1.0" standalone="no"?>
<!DOCTYPE svg PUBLIC "-//W3C//DTD SVG 20010904//EN"
 "http://www.w3.org/TR/2001/REC-SVG-20010904/DTD/svg10.dtd">
<svg version="1.0" xmlns="http://www.w3.org/2000/svg"
 width="1280.000000pt" height="1235.000000pt" viewBox="0 0 1280.000000 1235.000000"
 preserveAspectRatio="xMidYMid meet">
<metadata>
Created by potrace 1.15, written by Peter Selinger 2001-2017
</metadata>
<g transform="translate(0.000000,1235.000000) scale(0.100000,-0.100000)"
fill="#000000" stroke="none">
<path d="M5650 12340 c-1498 -94 -2868 -692 -3909 -1706 -495 -482 -857 -974
-1154 -1569 -319 -641 -495 -1264 -569 -2020 -19 -194 -16 -768 5 -975 46
-439 122 -809 249 -1200 334 -1028 949 -1928 1803 -2640 918 -765 2018 -1234
3220 -1374 485 -57 1045 -53 1535 10 1448 185 2794 891 3759 1969 800 894
1285 1974 1415 3152 87 778 -2 1598 -255 2356 -146 439 -391 937 -656 1335
-654 984 -1632 1774 -2753 2225 -560 225 -1143 364 -1765 422 -199 19 -730 27
-925 15z m732 -4771 c210 -29 433 -143 593 -304 172 -172 262 -378 272 -620
12 -285 -85 -535 -286 -736 -219 -219 -542 -335 -837 -300 -283 33 -528 170
-700 393 -218 281 -265 674 -120 1008 71 164 211 331 360 429 190 124 439 169
718 130z m1002 -628 c12 -39 25 -69 28 -66 3 3 28 -20 54 -52 27 -32 54 -62
60 -68 20 -18 82 -119 118 -191 141 -284 139 -637 -5 -927 -95 -190 -284 -378
-484 -480 -68 -35 -235 -100 -235 -92 0 3 -10 1 -23 -4 -85 -33 -479 -36 -529
-4 -5 2 -18 6 -29 8 -125 24 -339 136 -459 240 -39 34 -130 125 -130 130 0 2
-11 16 -25 31 -14 15 -25 32 -25 39 0 6 -23 22 -51 35 -28 13 -52 27 -55 32
-2 4 24 -6 58 -21 88 -40 199 -76 299 -98 104 -22 367 -24 479 -4 430 78 798
386 933 781 43 126 59 224 59 365 1 154 -20 274 -69 414 -4 9 -3 13 1 9 4 -3
18 -38 30 -77z"/>
</g>
</svg>
